# Blender v2.80 (sub 48) OBJ File: 'cubo2.blend'
# www.blender.org
mtllib cubo2.mtl
o Cube.001_Cube.002
v 0.851665 1.989912 0.975179
v 0.851665 -0.010088 0.975179
v -1.148335 1.989912 0.975179
v -1.148335 -0.010088 0.975179
v 0.851665 1.989912 -1.024821
v 0.851665 -0.010088 -1.024821
v -1.148335 1.989912 -1.024821
v -1.148335 -0.010088 -1.024821
v 0.739580 1.877827 0.975179
v 0.739580 0.101997 0.975179
v -1.036249 1.877827 0.975179
v -1.036249 0.101997 0.975179
v 0.739580 1.877827 -0.925538
v 0.739580 0.101997 -0.925538
v -1.036249 1.877827 -0.925538
v -1.036249 0.101997 -0.925538
vt 0.625000 0.500000
vt 0.875000 0.500000
vt 0.875000 0.750000
vt 0.625000 0.750000
vt 0.375000 0.000000
vt 0.625000 0.000000
vt 0.625000 0.250000
vt 0.375000 0.250000
vt 0.375000 0.250000
vt 0.625000 0.250000
vt 0.625000 0.500000
vt 0.375000 0.500000
vt 0.625000 0.750000
vt 0.375000 0.750000
vt 0.625000 1.000000
vt 0.375000 1.000000
vt 0.375000 0.250000
vt 0.625000 0.250000
vt 0.375000 0.000000
vt 0.375000 0.250000
vt 0.375000 0.250000
vt 0.375000 0.000000
vt 0.875000 0.750000
vt 0.625000 0.750000
vt 0.625000 1.000000
vt 0.125000 0.500000
vt 0.375000 0.500000
vt 0.375000 0.750000
vt 0.125000 0.750000
vt 0.625000 0.750000
vt 0.625000 0.750000
vt 0.625000 1.000000
vt 0.625000 0.250000
vt 0.625000 0.250000
vn 1.0000 0.0000 0.0000
vn 0.0000 1.0000 0.0000
vn -1.0000 0.0000 0.0000
vn 0.0000 0.0000 -1.0000
vn 0.0000 -1.0000 0.0000
vn -0.0000 0.0000 1.0000
usemtl Amarillo.002
s off
f 6/1/1 5/2/1 1/3/1 2/4/1
usemtl Blanco.001
f 1/5/2 5/6/2 7/7/2 3/8/2
f 4/9/3 3/10/3 7/11/3 8/12/3
f 8/12/4 7/11/4 5/13/4 6/14/4
f 6/14/5 2/4/5 4/15/5 8/16/5
f 3/10/6 4/9/6 12/17/6 11/18/6
f 9/19/5 11/20/5 15/21/5 13/22/5
f 2/4/6 1/3/6 9/23/6 10/24/6
f 4/15/6 2/4/6 10/24/6 12/25/6
f 1/5/6 3/8/6 11/20/6 9/19/6
f 14/26/6 13/27/6 15/28/6 16/29/6
f 10/24/3 9/23/3 13/30/3 14/31/3
f 12/25/2 10/24/2 14/31/2 16/32/2
f 11/18/1 12/17/1 16/33/1 15/34/1
o Cube
v 0.851665 3.898227 0.975179
v 0.851665 1.898227 0.975179
v -1.148335 3.898227 0.975179
v -1.148335 1.898227 0.975179
v 0.851665 3.898227 -1.024821
v 0.851665 1.898227 -1.024821
v -1.148335 3.898227 -1.024821
v -1.148335 1.898227 -1.024821
v 0.739580 3.786142 0.975179
v 0.739580 2.010312 0.975179
v -1.036249 3.786142 0.975179
v -1.036249 2.010312 0.975179
v 0.739580 3.786142 -0.925538
v 0.739580 2.010312 -0.925538
v -1.036249 3.786142 -0.925538
v -1.036249 2.010312 -0.925538
vt 0.625000 0.500000
vt 0.875000 0.500000
vt 0.875000 0.750000
vt 0.625000 0.750000
vt 0.375000 0.000000
vt 0.625000 0.000000
vt 0.625000 0.250000
vt 0.375000 0.250000
vt 0.375000 0.250000
vt 0.625000 0.250000
vt 0.625000 0.500000
vt 0.375000 0.500000
vt 0.625000 0.750000
vt 0.375000 0.750000
vt 0.625000 1.000000
vt 0.375000 1.000000
vt 0.375000 0.250000
vt 0.625000 0.250000
vt 0.375000 0.000000
vt 0.375000 0.250000
vt 0.375000 0.250000
vt 0.375000 0.000000
vt 0.875000 0.750000
vt 0.625000 0.750000
vt 0.625000 1.000000
vt 0.125000 0.500000
vt 0.375000 0.500000
vt 0.375000 0.750000
vt 0.125000 0.750000
vt 0.625000 0.750000
vt 0.625000 0.750000
vt 0.625000 1.000000
vt 0.625000 0.250000
vt 0.625000 0.250000
vn 1.0000 0.0000 0.0000
vn 0.0000 1.0000 0.0000
vn -1.0000 0.0000 0.0000
vn 0.0000 0.0000 -1.0000
vn 0.0000 -1.0000 -0.0000
vn -0.0000 0.0000 1.0000
usemtl Amarillo
s off
f 22/35/7 21/36/7 17/37/7 18/38/7
usemtl Blanco.002
f 17/39/8 21/40/8 23/41/8 19/42/8
f 20/43/9 19/44/9 23/45/9 24/46/9
f 24/46/10 23/45/10 21/47/10 22/48/10
f 22/48/11 18/38/11 20/49/11 24/50/11
f 19/44/12 20/43/12 28/51/12 27/52/12
f 25/53/11 27/54/11 31/55/11 29/56/11
f 18/38/12 17/37/12 25/57/12 26/58/12
f 20/49/12 18/38/12 26/58/12 28/59/12
f 17/39/12 19/42/12 27/54/12 25/53/12
f 30/60/12 29/61/12 31/62/12 32/63/12
f 26/58/9 25/57/9 29/64/9 30/65/9
f 28/59/8 26/58/8 30/65/8 32/66/8
f 27/52/7 28/51/7 32/67/7 31/68/7
